<?xml version="1.0" encoding="UTF-8" standalone="no"?>
<!-- Created with Inkscape (http://www.inkscape.org/) -->

<svg
   xmlns:dc="http://purl.org/dc/elements/1.1/"
   xmlns:cc="http://creativecommons.org/ns#"
   xmlns:rdf="http://www.w3.org/1999/02/22-rdf-syntax-ns#"
   xmlns:svg="http://www.w3.org/2000/svg"
   xmlns="http://www.w3.org/2000/svg"
   xmlns:sodipodi="http://sodipodi.sourceforge.net/DTD/sodipodi-0.dtd"
   xmlns:inkscape="http://www.inkscape.org/namespaces/inkscape"
   width="80"
   height="105"
   viewBox="0 0 21.166666 27.781251"
   version="1.1"
   id="svg8"
   inkscape:version="0.92.2 (5c3e80d, 2017-08-06)"
   sodipodi:docname="saintoftheday_logo.svg">
  <defs
     id="defs2" />
  <sodipodi:namedview
     id="base"
     pagecolor="#ffffff"
     bordercolor="#666666"
     borderopacity="1.0"
     inkscape:pageopacity="0.0"
     inkscape:pageshadow="2"
     inkscape:zoom="1"
     inkscape:cx="-52.354497"
     inkscape:cy="-16.029034"
     inkscape:document-units="mm"
     inkscape:current-layer="layer1"
     showgrid="false"
     inkscape:window-width="1366"
     inkscape:window-height="725"
     inkscape:window-x="0"
     inkscape:window-y="0"
     inkscape:window-maximized="1"
     units="px" />
  <metadata
     id="metadata5">
    <rdf:RDF>
      <cc:Work
         rdf:about="">
        <dc:format>image/svg+xml</dc:format>
        <dc:type
           rdf:resource="http://purl.org/dc/dcmitype/StillImage" />
        <dc:title></dc:title>
      </cc:Work>
    </rdf:RDF>
  </metadata>
  <g
     inkscape:label="Layer 1"
     inkscape:groupmode="layer"
     id="layer1"
     transform="translate(0,-269.21873)">
    <path
       style="font-style:normal;font-variant:normal;font-weight:normal;font-stretch:normal;font-size:10.58333302px;line-height:1.25;font-family:Coolvetica;-inkscape-font-specification:Coolvetica;letter-spacing:0px;word-spacing:0px;fill:#000000;fill-opacity:1;stroke:none;stroke-width:0.78220212"
       d="m 8.1989471,274.84807 c -1.2932353,0 -2.4200684,0.16717 -3.3795746,0.50092 -0.9386439,0.31287 -1.7318935,0.75081 -2.3785091,1.314 -0.6466217,0.54233 -1.1264445,1.18933 -1.4393253,1.94025 -0.31288077,0.75091 -0.46900787,1.55404 -0.46900787,2.40925 0,1.12638 0.1770753,2.05479 0.53167107,2.78485 0.3545958,0.73006 0.9083276,1.35458 1.659234,1.87604 0.7509148,0.50061 1.6987271,0.92865 2.8459587,1.28324 1.1680856,0.33374 2.5458919,0.66694 4.1311553,1.00068 0.6674777,0.14601 1.2097567,0.31358 1.6269287,0.50131 0.417179,0.16687 0.740878,0.36488 0.970319,0.59434 0.250307,0.22944 0.415929,0.48991 0.499366,0.78194 0.08344,0.27115 0.125329,0.57392 0.125329,0.90766 0,0.8552 -0.354143,1.53265 -1.063343,2.03326 -0.709193,0.50061 -1.752242,0.75158 -3.1289191,0.75158 -1.2723793,0 -2.3359828,-0.30235 -3.1911944,-0.90726 -0.8343448,-0.62576 -1.2623886,-1.47079 -1.2832517,-2.53458 H 0.06352466 c 0.083436,2.29445 0.88657337,4.0264 2.40925554,5.19449 1.5226897,1.16809 3.7953586,1.75225 6.8198694,1.75226 1.0637954,0 2.0760094,-0.14662 3.0355074,-0.43865 0.959502,-0.27116 1.793468,-0.6672 2.502668,-1.18867 0.709199,-0.54232 1.272416,-1.2004 1.689594,-1.97217 0.417171,-0.77177 0.626249,-1.65713 0.626249,-2.65835 0,-0.83435 -0.08379,-1.54382 -0.250656,-2.12785 -0.166876,-0.58405 -0.395336,-1.08481 -0.687358,-1.50199 -0.271163,-0.41718 -0.615422,-0.76143 -1.032594,-1.0326 -0.396318,-0.29201 -0.824353,-0.53194 -1.283249,-0.71966 -0.813489,-0.3546 -1.710303,-0.66685 -2.690661,-0.93802 -0.980358,-0.27116 -2.1388024,-0.56402 -3.4737653,-0.8769 -1.1263709,-0.27116 -1.9488929,-0.60436 -2.4703652,-1.00068 -0.500609,-0.41717 -0.7519684,-0.92901 -0.7519684,-1.53391 0,-1.68956 1.2315705,-2.53302 3.692896,-2.53302 1.3349602,0 2.3357279,0.26085 3.0032029,0.78233 0.667479,0.52146 1.054015,1.31315 1.158312,2.37694 h 4.129208 c -0.04171,-1.02207 -0.260293,-1.9505 -0.65661,-2.78484 -0.396319,-0.85522 -0.95992,-1.57456 -1.689982,-2.15861 -0.709189,-0.60489 -1.563728,-1.06379 -2.564943,-1.37666 -1.00122,-0.33375 -2.1276644,-0.50092 -3.3791879,-0.50092 z"
       id="text817"
       inkscape:connector-curvature="0" />
    <path
       style="opacity:0.82900002;fill:none;fill-opacity:1;stroke:#ffbf00;stroke-width:1.66880131;stroke-miterlimit:4;stroke-dasharray:none;stroke-opacity:1"
       d="m 14.243353,271.09648 a 7.7109387,3.9176544 20.558638 0 0 -8.595589,0.96034 7.7109387,3.9176544 20.558638 0 0 5.844096,6.37597 7.7109387,3.9176544 20.558638 0 0 8.59559,-0.96034 7.7109387,3.9176544 20.558638 0 0 -5.844097,-6.37597 z"
       id="path820"
       inkscape:connector-curvature="0" />
  </g>
</svg>
